<svg width="201" height="242" viewBox="0 0 201 242" fill="none" xmlns="http://www.w3.org/2000/svg">
<rect x="0.498535" y="28.9005" width="200" height="200" fill="#171717"/>
<path d="M51.0855 198.401V56.1055H105.711C115.516 56.1055 124.175 57.8245 131.687 61.2625C139.327 64.7005 145.312 69.7938 149.641 76.5425C153.971 83.2912 156.136 91.6315 156.136 101.564C156.136 111.241 153.907 119.454 149.45 126.203C145.121 132.951 139.136 138.108 131.496 141.674C123.984 145.112 115.389 146.831 105.711 146.831H80.6905V198.401H51.0855ZM80.6905 121.046H105.902C110.104 121.046 113.733 120.218 116.789 118.563C119.845 116.907 122.201 114.615 123.856 111.687C125.639 108.758 126.53 105.384 126.53 101.564C126.53 97.6162 125.639 94.1782 123.856 91.2495C122.201 88.3208 119.845 86.0288 116.789 84.3735C113.733 82.7182 110.104 81.8905 105.902 81.8905H80.6905V121.046Z" fill="white"/>
</svg>
