<svg width="49" height="49" viewBox="0 0 49 49" fill="none" xmlns="http://www.w3.org/2000/svg">
<circle cx="24.167" cy="24.6025" r="23.9893" fill="#171717"/>
<path d="M35.3738 15.5787C35.3608 15.3155 35.3029 15.0563 35.2019 14.8124C35.0863 14.5334 34.9167 14.2798 34.7033 14.0663C34.4898 13.8528 34.2362 13.6833 33.9572 13.5677C33.6783 13.4522 33.3793 13.3927 33.0774 13.3927C32.7754 13.3927 32.4764 13.4522 32.1975 13.5677C31.9534 13.6688 31.729 13.8113 31.5337 13.9883L31.4514 14.0663L14.7107 30.8065L13.4912 35.2772L17.9619 34.0583L34.7033 17.3176L34.7813 17.2359C34.9582 17.0406 35.1008 16.8162 35.2019 16.5721C35.3174 16.2933 35.3768 15.9941 35.3769 15.6923L35.3738 15.5787ZM37.8858 15.9286C37.8586 16.48 37.737 17.0232 37.5253 17.5343C37.3137 18.0454 37.0154 18.5154 36.6448 18.9245L36.4815 19.0964L19.505 36.0729C19.3503 36.2276 19.1578 36.339 18.9468 36.3965L12.0304 38.2828C11.5951 38.4015 11.1295 38.2782 10.8104 37.9592C10.4913 37.6402 10.3675 37.1745 10.4862 36.7392L12.3724 29.8228L12.3964 29.7442C12.4585 29.5638 12.5613 29.3994 12.6967 29.264L29.6732 12.2875L29.8445 12.1248C30.2536 11.754 30.7241 11.456 31.2353 11.2443C31.8193 11.0024 32.4452 10.8777 33.0774 10.8777C33.7095 10.8777 34.3354 11.0024 34.9194 11.2443C35.5034 11.4862 36.0345 11.8405 36.4815 12.2875C36.9285 12.7345 37.2834 13.2655 37.5253 13.8496C37.7673 14.4337 37.8919 15.06 37.8919 15.6923L37.8858 15.9286Z" fill="#222222"/>
</svg>
