<svg width="26" height="5" viewBox="0 0 26 5" fill="none" xmlns="http://www.w3.org/2000/svg">
<path d="M12.9844 3.95123C13.8253 3.95123 14.507 3.26952 14.507 2.42859C14.507 1.58766 13.8253 0.905945 12.9844 0.905945C12.1434 0.905945 11.4617 1.58766 11.4617 2.42859C11.4617 3.26952 12.1434 3.95123 12.9844 3.95123Z" fill="#373737"/>
<path d="M23.6429 3.95123C24.4838 3.95123 25.1655 3.26952 25.1655 2.42859C25.1655 1.58766 24.4838 0.905945 23.6429 0.905945C22.802 0.905945 22.1202 1.58766 22.1202 2.42859C22.1202 3.26952 22.802 3.95123 23.6429 3.95123Z" fill="#373737"/>
<path d="M2.32587 3.95123C3.1668 3.95123 3.84851 3.26952 3.84851 2.42859C3.84851 1.58766 3.1668 0.905945 2.32587 0.905945C1.48493 0.905945 0.803223 1.58766 0.803223 2.42859C0.803223 3.26952 1.48493 3.95123 2.32587 3.95123Z" fill="#373737"/>
<path d="M12.9844 3.95123C13.8253 3.95123 14.507 3.26952 14.507 2.42859C14.507 1.58766 13.8253 0.905945 12.9844 0.905945C12.1434 0.905945 11.4617 1.58766 11.4617 2.42859C11.4617 3.26952 12.1434 3.95123 12.9844 3.95123Z" stroke="#373737" stroke-linecap="round" stroke-linejoin="round"/>
<path d="M23.6429 3.95123C24.4838 3.95123 25.1655 3.26952 25.1655 2.42859C25.1655 1.58766 24.4838 0.905945 23.6429 0.905945C22.802 0.905945 22.1202 1.58766 22.1202 2.42859C22.1202 3.26952 22.802 3.95123 23.6429 3.95123Z" stroke="#373737" stroke-linecap="round" stroke-linejoin="round"/>
<path d="M2.32587 3.95123C3.1668 3.95123 3.84851 3.26952 3.84851 2.42859C3.84851 1.58766 3.1668 0.905945 2.32587 0.905945C1.48493 0.905945 0.803223 1.58766 0.803223 2.42859C0.803223 3.26952 1.48493 3.95123 2.32587 3.95123Z" stroke="#373737" stroke-linecap="round" stroke-linejoin="round"/>
</svg>
